<?xml version="1.0" encoding="UTF-8"?>
<svg width="18px" height="29px" viewBox="0 0 18 29" version="1.1" xmlns="http://www.w3.org/2000/svg" xmlns:xlink="http://www.w3.org/1999/xlink">
    <!-- Generator: Sketch 50.2 (55047) - http://www.bohemiancoding.com/sketch -->
    <title>Fill 1</title>
    <desc>Created with Sketch.</desc>
    <defs></defs>
    <g id="Symbols" stroke="none" stroke-width="1" fill="none" fill-rule="evenodd">
        <g id="Drink-Pairings" transform="translate(-18.000000, -12.000000)" fill="#246EB9">
            <g id="Fill-1">
                <path d="M32.8315952,25.8469867 C36.3898793,21.5741508 34.9699871,13.5742623 34.9083027,13.2350804 L34.7720838,12.5 L19.0427312,12.5 L18.9013703,13.2286324 C18.8358303,13.5691959 17.3489636,21.5765852 20.8791196,25.8481052 C22.1230715,27.3516579 23.8386869,28.1664181 25.9411867,28.3566034 L25.9411867,35.0158847 C22.8633828,35.1366841 18.6328212,35.8576215 18.6328212,38.0024285 C18.6328212,40.3772946 23.8218758,41.0108179 26.8856979,41.0108179 C29.9519216,41.0108179 35.1398905,40.3759787 35.1398905,38.0024285 C35.1398905,35.834494 30.8232998,35.119975 27.7417126,35.0107196 L27.7417126,28.3563731 C29.8492459,28.1674643 31.5750268,27.3527107 32.8320722,25.8465919 L32.8315952,25.8469867 Z M20.553936,14.2980257 L33.2454563,14.2980257 C33.3778194,15.3595234 33.5423111,17.4272167 33.303285,19.5683392 L20.4499049,19.5683392 C20.2301539,17.4248152 20.4139207,15.3570231 20.5539985,14.2980257 L20.553936,14.2980257 Z M26.8868954,39.2119359 C23.1447096,39.2119359 20.9997381,38.4280343 20.5039602,38.0013758 C21.0012843,37.5734342 23.1474073,36.7908157 26.8868954,36.7908157 C30.6290812,36.7908157 32.7750397,37.5721512 33.2737785,38.0013758 C32.7764543,38.4280343 30.6277652,39.2119359 26.8868954,39.2119359 Z"></path>
            </g>
        </g>
    </g>
</svg>