<svg id="Layer_1" data-name="Layer 1" xmlns="http://www.w3.org/2000/svg" viewBox="0 0 300 300"><defs><style>.cls-1{fill:none;stroke:#3d348b;stroke-miterlimit:10;stroke-width:7.05px;}.cls-2{fill:#3d348b;}</style></defs><title>Nutrition</title><rect class="cls-1" x="37.21" y="7" width="225.58" height="285" rx="41.6" ry="41.6"/><path class="cls-2" d="M58.85,87.25h184v6.32h-184Z"/><path class="cls-2" d="M58.85,122.57h184v6.32h-184Z"/><path class="cls-2" d="M58.85,193.2h184v6.31h-184Z"/><path class="cls-2" d="M58.85,228.51h184v6.32h-184Z"/><path class="cls-2" d="M58.85,263.82h184v6.32h-184Z"/><path class="cls-2" d="M58.85,100.63H92.52v15.79H58.85Z"/><path class="cls-2" d="M226,100.17h16.85V116H226Z"/><path class="cls-2" d="M220.19,170.79h22.63v15.79H220.19Z"/><path class="cls-2" d="M229.24,206.11h13.59V221.9H229.24Z"/><path class="cls-2" d="M213.15,64.87h29.66V80.65H213.15Z"/><path class="cls-2" d="M58.85,135.84h47.74v15.79H58.85Z"/><path class="cls-2" d="M229.24,241.43h13.59v15.78H229.24Z"/><path class="cls-2" d="M229.24,135.48h13.59v15.79H229.24Z"/><path class="cls-2" d="M58.85,171.06h38.2v15.79H58.85Z"/><path class="cls-2" d="M58.85,206.26h60.31v15.79H58.85Z"/><path class="cls-2" d="M58.85,241.48H94.53v15.79H58.85Z"/><path class="cls-2" d="M58.85,157.88h184v6.32h-184Z"/><path class="cls-2" d="M97.22,31.05c-7.67,0-10,2.48-12.44,2.48S80,31.05,72.34,31.05s-13.48,8-13.48,16.86,8.71,29.58,18.25,29.58c5,0,6.22-1.24,7.67-1.24s2.69,1.24,7.67,1.24c9.54,0,18.24-20.74,18.24-29.58S104.89,31.05,97.22,31.05Z"/><path class="cls-2" d="M84.79,31.21a3.14,3.14,0,0,1-3.13-2.88C81.36,25,82.6,18,89.31,15.55a3.16,3.16,0,0,1,2.18,5.94C87.57,22.93,88,27.76,88,27.8a3.16,3.16,0,0,1-2.88,3.41,2.61,2.61,0,0,0-.28,0Z"/></svg>