<svg id="Layer_1" data-name="Layer 1" xmlns="http://www.w3.org/2000/svg" viewBox="0 0 300 300"><defs><style>.cls-1{fill:#f18701;}</style></defs><title>Artboard 1</title><path class="cls-1" d="M150.6,265.87c-50.47,0-91.45-41.31-91.45-91.44S100.46,83,150.6,83s91.12,41.61,91.12,91.43-40.64,91.45-91.12,91.45ZM238.44,85.92l-1-1,12.12-17A11.41,11.41,0,0,0,247,52.49L231.89,42a11.41,11.41,0,0,0-15.4,2.62L204.36,61.67c-9.83-4.92-21-8.2-31.79-10.49V38.07a12.59,12.59,0,0,0,12.78-12.78V15.78A12.59,12.59,0,0,0,172.57,3H127.33a12.59,12.59,0,0,0-12.78,12.78v9.83a12.59,12.59,0,0,0,12.78,12.78H128V51.5A120.82,120.82,0,0,0,62.1,86.25,123.8,123.8,0,0,0,25.71,174.1c0,32.77,13.11,64.9,36.39,87.84a123.77,123.77,0,0,0,87.84,36.39c32.78,0,64.91-13.11,87.85-36.39a123.77,123.77,0,0,0,36.39-87.84c0-32.78-12.14-64.57-35.73-88.18Z"/><path class="cls-1" d="M161.08,154.1c-21.3-13.11-71.46-38.35-73.75-39s-4.91,0-7.2,2.29c-1.64,2.29-2.3,4.92-.66,7.21a.64.64,0,0,0,.66.65c3.93,5.9,37.35,45.55,53.43,62.61l3.27,3.28c9.5,7.54,23.6,5.9,31.47-3.28,7.55-9.5,5.91-23.6-3.27-31.47a16,16,0,0,0-3.95-2.29Z"/></svg>